<?xml version="1.0" encoding="utf-8"?>
<svg version="1.1" xmlns:xlink="http://www.w3.org/1999/xlink" width="25px" height="25px" xmlns="http://www.w3.org/2000/svg">
  <g transform="matrix(1 0 0 1 -926 -762 )">
    <path d="M 4.6875 0  L 20.3125 0  C 21.6037326388889 0  22.7077907986111 0.458441840277828  23.6246744791667 1.37532552083337  C 24.5415581597222 2.29220920138903  25 3.39626736111097  25 4.6875  L 25 20.3125  C 25 21.603732638889  24.5415581597222 22.707790798611  23.6246744791667 23.6246744791666  C 22.7077907986111 24.5415581597222  21.6037326388889 25  20.3125 25  L 17.2526041666667 25  L 17.2526041666667 15.3157552083334  L 20.4915364583333 15.3157552083334  L 20.9798177083333 11.5397135416666  L 17.2526041666667 11.5397135416666  L 17.2526041666667 9.130859375  C 17.2526041666667 8.52322048611097  17.3800998263889 8.06749131944434  17.6350911458333 7.763671875  C 17.8900824652778 7.45985243055566  18.3865017361111 7.30794270833337  19.1243489583333 7.30794270833337  L 21.1100260416667 7.29166666666663  L 21.1100260416667 3.92252604166663  C 20.4264322916667 3.82486979166663  19.4607204861111 3.77604166666663  18.212890625 3.77604166666663  C 16.7371961805555 3.77604166666663  15.5571831597222 4.21006944444434  14.6728515625 5.078125  C 13.7885199652778 5.94618055555566  13.3463541666667 7.17230902777783  13.3463541666667 8.75651041666663  L 13.3463541666667 11.5397135416666  L 10.0911458333333 11.5397135416666  L 10.0911458333333 15.3157552083334  L 13.3463541666667 15.3157552083334  L 13.3463541666667 25  L 4.6875 25  C 3.39626736111114 25  2.29220920138886 24.5415581597222  1.37532552083334 23.6246744791666  C 0.4584418402778 22.707790798611  0 21.603732638889  0 20.3125  L 0 4.6875  C 0 3.39626736111097  0.4584418402778 2.29220920138903  1.37532552083334 1.37532552083337  C 2.29220920138886 0.458441840277828  3.39626736111114 0  4.6875 0  Z " fill-rule="nonzero" fill="#003399" stroke="none" transform="matrix(1 0 0 1 926 762 )" />
  </g>
</svg>