<?xml version="1.0" encoding="utf-8"?>
<svg version="1.1" xmlns:xlink="http://www.w3.org/1999/xlink" width="16px" height="30px" xmlns="http://www.w3.org/2000/svg">
  <g transform="matrix(1 0 0 1 -158 -1326 )">
    <path d="M 0.274914089347249 14.3086172344683  C 0.0916380297821888 14.5090180360717  0 14.7394789579162  0 15  C 0 15.2605210420838  0.0916380297821888 15.4909819639283  0.274914089347249 15.6913827655317  L 13.0859106529209 29.6993987975952  C 13.2691867124856 29.8997995991986  13.479954180985 30  13.7182130584195 30  C 13.9564719358532 30  14.1672394043526 29.8997995991986  14.3505154639176 29.6993987975952  L 15.7250859106528 28.1963927855713  C 15.9083619702178 27.995991983968  16 27.7655310621244  16 27.5050100200406  C 16 27.2444889779558  15.9083619702178 27.0140280561122  15.7250859106528 26.8136272545089  L 4.92096219931261 15  L 15.7250859106528 3.1863727454911  C 15.9083619702178 2.98597194388776  16 2.75551102204417  16 2.49498997995943  C 16 2.23446893787559  15.9083619702178 2.004008016032  15.7250859106528 1.80360721442867  L 14.3505154639176 0.300601202404778  C 14.1672394043526 0.100200400801441  13.9564719358532 0  13.7182130584195 0  C 13.479954180985 0  13.2691867124856 0.100200400801441  13.0859106529209 0.300601202404778  L 0.274914089347249 14.3086172344683  Z " fill-rule="nonzero" fill="#d7d7d7" stroke="none" transform="matrix(1 0 0 1 158 1326 )" />
  </g>
</svg>