<?xml version="1.0" encoding="utf-8"?>
<svg version="1.1" xmlns:xlink="http://www.w3.org/1999/xlink" width="16px" height="30px" xmlns="http://www.w3.org/2000/svg">
  <g transform="matrix(1 0 0 1 -1088 -1326 )">
    <path d="M 15.7250859106528 14.3086172344683  C 15.9083619702178 14.5090180360717  16 14.7394789579162  16 15  C 16 15.2605210420838  15.9083619702178 15.4909819639283  15.7250859106528 15.6913827655317  L 2.91408934707908 29.6993987975952  C 2.73081328751437 29.8997995991986  2.52004581901497 30  2.28178694158055 30  C 2.04352806414681 30  1.83276059564741 29.8997995991986  1.64948453608235 29.6993987975952  L 0.274914089347249 28.1963927855713  C 0.0916380297821888 27.995991983968  0 27.7655310621244  0 27.5050100200406  C 0 27.2444889779558  0.0916380297821888 27.0140280561122  0.274914089347249 26.8136272545089  L 11.0790378006874 15  L 0.274914089347249 3.1863727454911  C 0.0916380297821888 2.98597194388776  0 2.75551102204417  0 2.49498997995943  C 0 2.23446893787559  0.0916380297821888 2.004008016032  0.274914089347249 1.80360721442867  L 1.64948453608235 0.300601202404778  C 1.83276059564741 0.100200400801441  2.04352806414681 0  2.28178694158055 0  C 2.52004581901497 0  2.73081328751437 0.100200400801441  2.91408934707908 0.300601202404778  L 15.7250859106528 14.3086172344683  Z " fill-rule="nonzero" fill="#d7d7d7" stroke="none" transform="matrix(1 0 0 1 1088 1326 )" />
  </g>
</svg>