<?xml version="1.0" encoding="utf-8"?>
<svg version="1.1" xmlns:xlink="http://www.w3.org/1999/xlink" width="25px" height="25px" xmlns="http://www.w3.org/2000/svg">
  <g transform="matrix(1 0 0 1 -961 -762 )">
    <path d="M 13.2731119791667 17.041015625  C 14.3744574652778 15.9016927083334  14.9251302083333 14.4368489583334  14.9251302083333 12.646484375  C 14.9251302083333 12.3643663194443  14.892578125 12.0171440972222  14.8274739583333 11.6048177083334  L 8.935546875 11.6048177083334  L 8.935546875 13.7532552083334  L 12.4674479166667 13.7532552083334  C 12.4348958333333 14.013671875  12.3453776041667 14.284939236111  12.1988932291667 14.5670572916666  C 12.0524088541667 14.8491753472222  11.8489583333333 15.13671875  11.5885416666667 15.4296875  C 11.328125 15.72265625  10.9673394097222 15.964084201389  10.5061848958333 16.1539713541666  C 10.0450303819445 16.3438585069443  9.521484375 16.4388020833334  8.935546875 16.4388020833334  C 7.861328125 16.4388020833334  6.94444444444446 16.0536024305557  6.18489583333334 15.283203125  C 5.4253472222222 14.5128038194443  5.04557291666666 13.5850694444443  5.04557291666666 12.5  C 5.04557291666666 11.4149305555557  5.4253472222222 10.4871961805557  6.18489583333334 9.716796875  C 6.94444444444446 8.94639756944434  7.861328125 8.56119791666663  8.935546875 8.56119791666663  C 9.93381076388886 8.56119791666663  10.7638888888889 8.88129340277783  11.42578125 9.521484375  L 13.1184895833333 7.87760416666663  C 11.9466145833333 6.79253472222217  10.5523003472222 6.25  8.935546875 6.25  C 7.19943576388886 6.25  5.72374131944446 6.8603515625  4.50846354166666 8.0810546875  C 3.29318576388886 9.3017578125  2.685546875 10.7747395833334  2.685546875 12.5  C 2.685546875 14.2252604166666  3.29318576388886 15.6982421875  4.50846354166666 16.9189453125  C 5.72374131944446 18.1396484375  7.19943576388886 18.75  8.935546875 18.75  C 10.7259114583333 18.75  12.1717664930555 18.1803385416666  13.2731119791667 17.041015625  Z M 20.5403645833333 15.185546875  L 20.5403645833333 13.3951822916666  L 22.314453125 13.3951822916666  L 22.314453125 11.6048177083334  L 20.5403645833333 11.6048177083334  L 20.5403645833333 9.814453125  L 18.75 9.814453125  L 18.75 11.6048177083334  L 16.9596354166667 11.6048177083334  L 16.9596354166667 13.3951822916666  L 18.75 13.3951822916666  L 18.75 15.185546875  L 20.5403645833333 15.185546875  Z M 23.6246744791667 1.37532552083337  C 24.5415581597222 2.29220920138903  25 3.39626736111097  25 4.6875  L 25 20.3125  C 25 21.603732638889  24.5415581597222 22.707790798611  23.6246744791667 23.6246744791666  C 22.7077907986111 24.5415581597222  21.6037326388889 25  20.3125 25  L 4.6875 25  C 3.39626736111114 25  2.29220920138886 24.5415581597222  1.37532552083334 23.6246744791666  C 0.4584418402778 22.707790798611  0 21.603732638889  0 20.3125  L 0 4.6875  C 0 3.39626736111097  0.4584418402778 2.29220920138903  1.37532552083334 1.37532552083337  C 2.29220920138886 0.458441840277828  3.39626736111114 0  4.6875 0  L 20.3125 0  C 21.6037326388889 0  22.7077907986111 0.458441840277828  23.6246744791667 1.37532552083337  Z " fill-rule="nonzero" fill="#ff0000" stroke="none" transform="matrix(1 0 0 1 961 762 )" />
  </g>
</svg>