<?xml version="1.0" encoding="utf-8"?>
<svg version="1.1" xmlns:xlink="http://www.w3.org/1999/xlink" width="32px" height="60px" xmlns="http://www.w3.org/2000/svg">
  <g transform="matrix(1 0 0 1 -160 -1408 )">
    <path d="M 0.549828178694611 28.6172344689367  C 0.183276059564378 29.0180360721433  0 29.4789579158323  0 30  C 0 30.5210420841677  0.183276059564378 30.9819639278567  0.549828178694611 31.3827655310633  L 26.1718213058418 59.3987975951904  C 26.5383734249714 59.7995991983971  26.9599083619702 60  27.436426116839 60  C 27.9129438717064 60  28.3344788087052 59.7995991983971  28.7010309278354 59.3987975951904  L 31.4501718213054 56.3927855711427  C 31.8167239404356 55.991983967936  32 55.5310621242488  32 55.0100200400811  C 32 54.4889779559117  31.8167239404356 54.0280561122245  31.4501718213054 53.6272545090178  L 9.84192439862522 30  L 31.4501718213054 6.3727454909822  C 31.8167239404356 5.97194388777552  32 5.51102204408835  32 4.98997995991886  C 32 4.46893787575118  31.8167239404356 4.00801603206401  31.4501718213054 3.60721442885733  L 28.7010309278354 0.601202404809555  C 28.3344788087052 0.200400801602882  27.9129438717064 0  27.436426116839 0  C 26.9599083619702 0  26.5383734249714 0.200400801602882  26.1718213058418 0.601202404809555  L 0.549828178694611 28.6172344689367  Z " fill-rule="nonzero" fill="#d7d7d7" stroke="none" transform="matrix(1 0 0 1 160 1408 )" />
  </g>
</svg>