<?xml version="1.0" encoding="utf-8"?>
<svg version="1.1" xmlns:xlink="http://www.w3.org/1999/xlink" width="253px" height="36px" xmlns="http://www.w3.org/2000/svg">
  <g transform="matrix(1 0 0 1 -560 -762 )">
    <path d="M 560.5 766  A 3.5 3.5 0 0 1 564 762.5 L 809 762.5  A 3.5 3.5 0 0 1 812.5 766 L 812.5 794  A 3.5 3.5 0 0 1 809 797.5 L 564 797.5  A 3.5 3.5 0 0 1 560.5 794 L 560.5 766  Z " fill-rule="nonzero" fill="#d9534f" stroke="none" />
    <path d="M 560.5 766  A 3.5 3.5 0 0 1 564 762.5 L 809 762.5  A 3.5 3.5 0 0 1 812.5 766 L 812.5 794  A 3.5 3.5 0 0 1 809 797.5 L 564 797.5  A 3.5 3.5 0 0 1 560.5 794 L 560.5 766  Z " stroke-width="1" stroke="#d43f3a" fill="none" />
  </g>
</svg>