<?xml version="1.0" encoding="utf-8"?>
<svg version="1.1" xmlns:xlink="http://www.w3.org/1999/xlink" width="32px" height="60px" xmlns="http://www.w3.org/2000/svg">
  <g transform="matrix(1 0 0 1 -1075 -1408 )">
    <path d="M 31.4501718213055 28.6172344689367  C 31.8167239404356 29.0180360721433  32 29.4789579158323  32 30  C 32 30.5210420841677  31.8167239404356 30.9819639278567  31.4501718213055 31.3827655310633  L 5.82817869415817 59.3987975951904  C 5.46162657502873 59.7995991983971  5.04009163802994 60  4.5635738831611 60  C 4.08705612829363 60  3.66552119129483 59.7995991983971  3.29896907216471 59.3987975951904  L 0.549828178694497 56.3927855711427  C 0.183276059564378 55.991983967936  0 55.5310621242488  0 55.0100200400811  C 0 54.4889779559117  0.183276059564378 54.0280561122245  0.549828178694497 53.6272545090178  L 22.1580756013748 30  L 0.549828178694497 6.3727454909822  C 0.183276059564378 5.97194388777552  0 5.51102204408835  0 4.98997995991886  C 0 4.46893787575118  0.183276059564378 4.00801603206401  0.549828178694497 3.60721442885733  L 3.29896907216471 0.601202404809555  C 3.66552119129483 0.200400801602882  4.08705612829363 0  4.5635738831611 0  C 5.04009163802994 0  5.46162657502873 0.200400801602882  5.82817869415817 0.601202404809555  L 14.6053562851039 10.1984920301798  L 31.4501718213055 28.6172344689367  Z " fill-rule="nonzero" fill="#d7d7d7" stroke="none" transform="matrix(1 0 0 1 1075 1408 )" />
  </g>
</svg>