<?xml version="1.0" encoding="utf-8"?>
<svg version="1.1" xmlns:xlink="http://www.w3.org/1999/xlink" width="16px" height="17px" xmlns="http://www.w3.org/2000/svg">
  <g transform="matrix(1 0 0 1 -155 -854 )">
    <path d="M 12.6153846153846 8.92689732142856  C 12.6153846153846 9.00911458333331  12.5865384615385 9.08184523809524  12.5288461538462 9.14508928571428  L 7.60576923076928 14.0022321428572  C 7.54166666666663 14.0591517857143  7.46794871794873 14.0876116071428  7.38461538461536 14.0876116071428  C 7.3012820512821 14.0876116071428  7.22756410256409 14.0591517857143  7.16346153846155 14.0022321428572  L 4.39423076923072 11.2700892857143  C 4.33653846153845 11.2068452380952  4.30769230769226 11.1341145833333  4.30769230769226 11.0518973214286  C 4.30769230769226 10.9696800595238  4.33653846153845 10.9001116071428  4.39423076923072 10.8431919642857  L 4.83653846153845 10.4068080357143  C 4.89423076923072 10.3498883928572  4.96474358974353 10.3214285714286  5.04807692307691 10.3214285714286  C 5.13141025641028 10.3214285714286  5.20512820512818 10.3498883928572  5.26923076923072 10.4068080357143  L 7.38461538461536 12.4938616071428  L 11.6538461538462 8.28180803571428  C 11.7179487179487 8.22488839285717  11.7916666666666 8.19642857142856  11.875 8.19642857142856  C 11.9583333333334 8.19642857142856  12.0288461538462 8.22488839285717  12.0865384615385 8.28180803571428  L 12.5288461538462 8.71819196428572  C 12.5865384615385 8.77511160714283  12.6153846153846 8.8446800595238  12.6153846153846 8.92689732142856  Z M 1.23076923076928 6  L 1.23076923076928 15.7857142857143  L 14.7692307692307 15.7857142857143  L 14.7692307692307 6  L 1.23076923076928 6  Z M 4.83653846153845 4.46819196428572  C 4.89423076923072 4.41127232142856  4.92307692307691 4.33854166666669  4.92307692307691 4.25  L 4.92307692307691 1.51785714285717  C 4.92307692307691 1.42931547619048  4.89423076923072 1.35658482142856  4.83653846153845 1.29966517857144  C 4.77884615384619 1.24274553571428  4.70512820512818 1.21428571428572  4.61538461538464 1.21428571428572  L 4 1.21428571428572  C 3.91025641025647 1.21428571428572  3.83653846153845 1.24274553571428  3.77884615384619 1.29966517857144  C 3.72115384615381 1.35658482142856  3.69230769230774 1.42931547619048  3.69230769230774 1.51785714285717  L 3.69230769230774 4.25  C 3.69230769230774 4.33854166666669  3.72115384615381 4.41127232142856  3.77884615384619 4.46819196428572  C 3.83653846153845 4.52511160714283  3.91025641025647 4.55357142857144  4 4.55357142857144  L 4.61538461538464 4.55357142857144  C 4.70512820512818 4.55357142857144  4.77884615384619 4.52511160714283  4.83653846153845 4.46819196428572  Z M 12.2211538461538 4.46819196428572  C 12.2788461538462 4.41127232142856  12.3076923076923 4.33854166666669  12.3076923076923 4.25  L 12.3076923076923 1.51785714285717  C 12.3076923076923 1.42931547619048  12.2788461538462 1.35658482142856  12.2211538461538 1.29966517857144  C 12.1634615384615 1.24274553571428  12.0897435897436 1.21428571428572  12 1.21428571428572  L 11.3846153846154 1.21428571428572  C 11.2948717948718 1.21428571428572  11.2211538461538 1.24274553571428  11.1634615384615 1.29966517857144  C 11.1057692307693 1.35658482142856  11.0769230769231 1.42931547619048  11.0769230769231 1.51785714285717  L 11.0769230769231 4.25  C 11.0769230769231 4.33854166666669  11.1057692307693 4.41127232142856  11.1634615384615 4.46819196428572  C 11.2211538461538 4.52511160714283  11.2948717948718 4.55357142857144  11.3846153846154 4.55357142857144  L 12 4.55357142857144  C 12.0897435897436 4.55357142857144  12.1634615384615 4.52511160714283  12.2211538461538 4.46819196428572  Z M 15.6346153846154 2.7890625  C 15.8782051282051 3.02938988095241  16 3.31398809523807  16 3.64285714285717  L 16 15.7857142857143  C 16 16.1145833333333  15.8782051282051 16.399181547619  15.6346153846154 16.6395089285714  C 15.3910256410256 16.8798363095238  15.1025641025641 17  14.7692307692307 17  L 1.23076923076928 17  C 0.897435897435912 17  0.608974358974365 16.8798363095238  0.365384615384642 16.6395089285714  C 0.121794871794918 16.399181547619  0 16.1145833333333  0 15.7857142857143  L 0 3.64285714285717  C 0 3.31398809523807  0.121794871794918 3.02938988095241  0.365384615384642 2.7890625  C 0.608974358974365 2.54873511904759  0.897435897435912 2.42857142857144  1.23076923076928 2.42857142857144  L 2.46153846153845 2.42857142857144  L 2.46153846153845 1.51785714285717  C 2.46153846153845 1.10044642857144  2.61217948717945 0.743117559523796  2.91346153846155 0.445870535714278  C 3.21474358974353 0.148623511904759  3.57692307692309 0  4 0  L 4.61538461538464 0  C 5.03846153846155 0  5.40064102564099 0.148623511904759  5.70192307692309 0.445870535714278  C 6.00320512820508 0.743117559523796  6.15384615384619 1.10044642857144  6.15384615384619 1.51785714285717  L 6.15384615384619 2.42857142857144  L 9.84615384615381 2.42857142857144  L 9.84615384615381 1.51785714285717  C 9.84615384615381 1.10044642857144  9.99679487179492 0.743117559523796  10.2980769230769 0.445870535714278  C 10.599358974359 0.148623511904759  10.9615384615385 0  11.3846153846154 0  L 12 0  C 12.4230769230769 0  12.7852564102565 0.148623511904759  13.0865384615385 0.445870535714278  C 13.3878205128206 0.743117559523796  13.5384615384615 1.10044642857144  13.5384615384615 1.51785714285717  L 13.5384615384615 2.42857142857144  L 14.7692307692307 2.42857142857144  C 15.1025641025641 2.42857142857144  15.3910256410256 2.54873511904759  15.6346153846154 2.7890625  Z " fill-rule="nonzero" fill="#10a84b" stroke="none" transform="matrix(1 0 0 1 155 854 )" />
  </g>
</svg>