<?xml version="1.0" encoding="utf-8"?>
<svg version="1.1" xmlns:xlink="http://www.w3.org/1999/xlink" width="12px" height="12px" viewBox="600 2936  12 12" xmlns="http://www.w3.org/2000/svg">
  <path d="M 606 2936  C 609.36 2936  612 2938.64  612 2942  C 612 2945.36  609.36 2948  606 2948  C 602.64 2948  600 2945.36  600 2942  C 600 2938.64  602.64 2936  606 2936  Z " fill-rule="nonzero" fill="#ffffff" stroke="none" />
  <path d="M 606 2936.5  C 609.08 2936.5  611.5 2938.92  611.5 2942  C 611.5 2945.08  609.08 2947.5  606 2947.5  C 602.92 2947.5  600.5 2945.08  600.5 2942  C 600.5 2938.92  602.92 2936.5  606 2936.5  Z " stroke-width="1" stroke="#797979" fill="none" />
  <path d="M 606 2945  C 604.32 2945  603 2943.68  603 2942  C 603 2940.32  604.32 2939  606 2939  C 607.68 2939  609 2940.32  609 2942  C 609 2943.68  607.68 2945  606 2945  " fill-rule="nonzero" fill="#797979" stroke="none" />
</svg>