<?xml version="1.0" encoding="utf-8"?>
<svg version="1.1" xmlns:xlink="http://www.w3.org/1999/xlink" width="12px" height="12px" viewBox="623 2936  12 12" xmlns="http://www.w3.org/2000/svg">
  <path d="M 629 2936  C 632.36 2936  635 2938.64  635 2942  C 635 2945.36  632.36 2948  629 2948  C 625.64 2948  623 2945.36  623 2942  C 623 2938.64  625.64 2936  629 2936  Z " fill-rule="nonzero" fill="#ffffff" stroke="none" />
  <path d="M 629 2936.5  C 632.08 2936.5  634.5 2938.92  634.5 2942  C 634.5 2945.08  632.08 2947.5  629 2947.5  C 625.92 2947.5  623.5 2945.08  623.5 2942  C 623.5 2938.92  625.92 2936.5  629 2936.5  Z " stroke-width="1" stroke="#797979" fill="none" />
  <path d="M 629 2945  C 627.32 2945  626 2943.68  626 2942  C 626 2940.32  627.32 2939  629 2939  C 630.68 2939  632 2940.32  632 2942  C 632 2943.68  630.68 2945  629 2945  " fill-rule="nonzero" fill="#797979" stroke="none" />
</svg>