<?xml version="1.0" encoding="utf-8"?>
<svg version="1.1" xmlns:xlink="http://www.w3.org/1999/xlink" width="12px" height="12px" viewBox="645 2936  12 12" xmlns="http://www.w3.org/2000/svg">
  <path d="M 651 2936  C 654.36 2936  657 2938.64  657 2942  C 657 2945.36  654.36 2948  651 2948  C 647.64 2948  645 2945.36  645 2942  C 645 2938.64  647.64 2936  651 2936  Z " fill-rule="nonzero" fill="#ffffff" stroke="none" />
  <path d="M 651 2936.5  C 654.08 2936.5  656.5 2938.92  656.5 2942  C 656.5 2945.08  654.08 2947.5  651 2947.5  C 647.92 2947.5  645.5 2945.08  645.5 2942  C 645.5 2938.92  647.92 2936.5  651 2936.5  Z " stroke-width="1" stroke="#797979" fill="none" />
  <path d="M 651 2945  C 649.32 2945  648 2943.68  648 2942  C 648 2940.32  649.32 2939  651 2939  C 652.68 2939  654 2940.32  654 2942  C 654 2943.68  652.68 2945  651 2945  " fill-rule="nonzero" fill="#797979" stroke="none" />
</svg>