<?xml version="1.0" encoding="utf-8"?>
<svg version="1.1" xmlns:xlink="http://www.w3.org/1999/xlink" width="12px" height="12px" viewBox="600 4144  12 12" xmlns="http://www.w3.org/2000/svg">
  <path d="M 606 4144  C 609.36 4144  612 4146.64  612 4150  C 612 4153.36  609.36 4156  606 4156  C 602.64 4156  600 4153.36  600 4150  C 600 4146.64  602.64 4144  606 4144  Z " fill-rule="nonzero" fill="#ffffff" stroke="none" />
  <path d="M 606 4144.5  C 609.08 4144.5  611.5 4146.92  611.5 4150  C 611.5 4153.08  609.08 4155.5  606 4155.5  C 602.92 4155.5  600.5 4153.08  600.5 4150  C 600.5 4146.92  602.92 4144.5  606 4144.5  Z " stroke-width="1" stroke="#797979" fill="none" />
  <path d="M 606 4153  C 604.32 4153  603 4151.68  603 4150  C 603 4148.32  604.32 4147  606 4147  C 607.68 4147  609 4148.32  609 4150  C 609 4151.68  607.68 4153  606 4153  " fill-rule="nonzero" fill="#797979" stroke="none" />
</svg>