<?xml version="1.0" encoding="utf-8"?>
<svg version="1.1" xmlns:xlink="http://www.w3.org/1999/xlink" width="12px" height="12px" viewBox="645 4144  12 12" xmlns="http://www.w3.org/2000/svg">
  <path d="M 651 4144  C 654.36 4144  657 4146.64  657 4150  C 657 4153.36  654.36 4156  651 4156  C 647.64 4156  645 4153.36  645 4150  C 645 4146.64  647.64 4144  651 4144  Z " fill-rule="nonzero" fill="#ffffff" stroke="none" />
  <path d="M 651 4144.5  C 654.08 4144.5  656.5 4146.92  656.5 4150  C 656.5 4153.08  654.08 4155.5  651 4155.5  C 647.92 4155.5  645.5 4153.08  645.5 4150  C 645.5 4146.92  647.92 4144.5  651 4144.5  Z " stroke-width="1" stroke="#797979" fill="none" />
  <path d="M 651 4153  C 649.32 4153  648 4151.68  648 4150  C 648 4148.32  649.32 4147  651 4147  C 652.68 4147  654 4148.32  654 4150  C 654 4151.68  652.68 4153  651 4153  " fill-rule="nonzero" fill="#797979" stroke="none" />
</svg>