<?xml version="1.0" encoding="utf-8"?>
<svg version="1.1" xmlns:xlink="http://www.w3.org/1999/xlink" width="11px" height="17px" xmlns="http://www.w3.org/2000/svg">
  <g transform="matrix(1 0 0 1 -156 -4828 )">
    <path d="M 7.4443359375 7.669921875  C 7.9814453125 7.11653645833348  8.25 6.44878472222217  8.25 5.66666666666652  C 8.25 4.88454861111131  7.9814453125 4.216796875  7.4443359375 3.66341145833348  C 6.9072265625 3.11002604166652  6.25911458333331 2.83333333333348  5.5 2.83333333333348  C 4.74088541666669 2.83333333333348  4.0927734375 3.11002604166652  3.5556640625 3.66341145833348  C 3.0185546875 4.216796875  2.75 4.88454861111131  2.75 5.66666666666652  C 2.75 6.44878472222217  3.0185546875 7.11653645833348  3.5556640625 7.669921875  C 4.0927734375 8.22330729166652  4.74088541666669 8.5  5.5 8.5  C 6.25911458333331 8.5  6.9072265625 8.22330729166652  7.4443359375 7.669921875  Z M 9.388671875 1.66015625  C 10.462890625 2.76692708333348  11 4.10243055555566  11 5.66666666666652  C 11 6.47092013888869  10.8818359375 7.13129340277783  10.6455078125 7.64778645833348  L 6.7353515625 16.2141927083335  C 6.62076822916669 16.4576822916665  6.45068359375 16.6495225694443  6.22509765625 16.7897135416665  C 5.99951171875 16.9299045138887  5.7578125 17  5.5 17  C 5.2421875 17  5.00048828125 16.9299045138887  4.77490234375 16.7897135416665  C 4.54931640625 16.6495225694443  4.3828125 16.4576822916665  4.275390625 16.2141927083335  L 0.3544921875 7.64778645833348  C 0.1181640625 7.13129340277783  0 6.47092013888869  0 5.66666666666652  C 0 4.10243055555566  0.537109375 2.76692708333348  1.611328125 1.66015625  C 2.685546875 0.553385416666515  3.98177083333331 0  5.5 0  C 7.01822916666669 0  8.314453125 0.553385416666515  9.388671875 1.66015625  Z " fill-rule="nonzero" fill="#70b603" stroke="none" transform="matrix(1 0 0 1 156 4828 )" />
  </g>
</svg>