<?xml version="1.0" encoding="utf-8"?>
<svg version="1.1" xmlns:xlink="http://www.w3.org/1999/xlink" width="17px" height="13px" xmlns="http://www.w3.org/2000/svg">
  <g transform="matrix(1 0 0 1 -153 -4967 )">
    <path d="M 16.0513392857143 4.99502840909099  C 16.4118303571428 4.75497159090901  16.7280505952381 4.48721590909099  17 4.19176136363649  L 17 11.5227272727275  C 17 11.9289772727275  16.8513764880952 12.2767518939395  16.5541294642857 12.5660511363635  C 16.2568824404762 12.855350378788  15.8995535714286 13  15.4821428571428 13  L 1.51785714285717 13  C 1.10044642857144 13  0.743117559523796 12.855350378788  0.445870535714278 12.5660511363635  C 0.148623511904759 12.2767518939395  0 11.9289772727275  0 11.5227272727275  L 0 4.19176136363649  C 0.278273809523796 4.49337121212102  0.59765625 4.76112689393949  0.958147321428555 4.99502840909099  C 3.24758184523807 6.5092329545455  4.81919642857144 7.57102272727252  5.67299107142856 8.18039772727252  C 6.03348214285717 8.4389204545455  6.32598586309524 8.64050662878799  6.55050223214283 8.78515625  C 6.77501860119048 8.92980587121201  7.07384672619048 9.07753314393949  7.44698660714283 9.22833806818198  C 7.82012648809524 9.37914299242402  8.16796875 9.4545454545455  8.49051339285717 9.4545454545455  L 8.5 9.4545454545455  L 8.50948660714283 9.4545454545455  C 8.83203125 9.4545454545455  9.17987351190476 9.37914299242402  9.55301339285717 9.22833806818198  C 9.92615327380952 9.07753314393949  10.2249813988095 8.92980587121201  10.4494977678572 8.78515625  C 10.6740141369048 8.64050662878799  10.9665178571428 8.4389204545455  11.3270089285714 8.18039772727252  C 12.4021577380952 7.4232954545455  13.9769345238095 6.36150568181802  16.0513392857143 4.99502840909099  Z M 16.5493861607143 0.433948863636488  C 16.8497953869048 0.72324810606051  17 1.07102272727252  17 1.47727272727252  C 17 1.96354166666652  16.8450520833333 2.4282670454545  16.53515625 2.87144886363649  C 16.2252604166667 3.31463068181802  15.8394717261905 3.69318181818198  15.3777901785714 4.00710227272748  C 12.9998139880952 5.61363636363649  11.5199032738095 6.61387310606051  10.9380580357143 7.0078125  C 10.8748139880952 7.05089962121201  10.7404203869048 7.14476799242402  10.5348772321428 7.28941761363649  C 10.329334077381 7.4340672348485  10.1585751488095 7.55101799242402  10.0226004464286 7.64026988636351  C 9.88662574404759 7.729521780303  9.72219122023807 7.8295454545455  9.529296875 7.94034090909099  C 9.33640252976193 8.05113636363649  9.15457589285717 8.1342329545455  8.98381696428572 8.18963068181802  C 8.81305803571428 8.24502840909099  8.65494791666669 8.27272727272748  8.50948660714283 8.27272727272748  L 8.5 8.27272727272748  L 8.49051339285717 8.27272727272748  C 8.34505208333331 8.27272727272748  8.18694196428572 8.24502840909099  8.01618303571428 8.18963068181802  C 7.84542410714283 8.1342329545455  7.66359747023807 8.05113636363649  7.470703125 7.94034090909099  C 7.27780877976193 7.8295454545455  7.11337425595241 7.729521780303  6.97739955357144 7.64026988636351  C 6.84142485119048 7.55101799242402  6.67066592261904 7.4340672348485  6.46512276785717 7.28941761363649  C 6.25957961309524 7.14476799242402  6.12518601190476 7.05089962121201  6.06194196428572 7.0078125  C 5.48642113095241 6.61387310606051  4.65792410714283 6.0522017045455  3.57645089285717 5.3227982954545  C 2.49497767857144 4.59339488636351  1.8467261904762 4.1548295454545  1.63169642857144 4.00710227272748  C 1.23958333333331 3.7485795454545  0.869605654761926 3.3931107954545  0.521763392857167 2.94069602272748  C 0.173921130952408 2.48828125  0 2.06818181818198  0 1.68039772727252  C 0 1.20028409090901  0.131231398809518 0.80018939393949  0.393694196428555 0.480113636363512  C 0.656156994047592 0.160037878787989  1.03087797619048 0  1.51785714285717 0  L 15.4821428571428 0  C 15.8932291666667 0  16.2489769345238 0.144649621212011  16.5493861607143 0.433948863636488  Z " fill-rule="nonzero" fill="#70b603" stroke="none" transform="matrix(1 0 0 1 153 4967 )" />
  </g>
</svg>