<?xml version="1.0" encoding="utf-8"?>
<svg version="1.1" xmlns:xlink="http://www.w3.org/1999/xlink" width="17px" height="17px" xmlns="http://www.w3.org/2000/svg">
  <g transform="matrix(1 0 0 1 -153 -4872 )">
    <path d="M 13.9231770833333 12.9049479166665  C 14.0855034722222 12.5138888888887  14.1666666666667 12.1412760416665  14.1666666666667 11.787109375  C 14.1666666666667 11.7059461805557  14.1592881944445 11.6469184027778  14.14453125 11.6100260416665  C 14.1297743055555 11.5731336805557  14.0633680555555 11.5122612847222  13.9453125 11.4274088541665  C 13.8272569444445 11.3425564236113  13.6778428819445 11.2503255208335  13.4970703125 11.1507161458335  C 13.3162977430555 11.0511067708335  13.1410590277778 10.9533420138887  12.9713541666667 10.857421875  C 12.8016493055555 10.7615017361113  12.6337890625 10.6692708333335  12.4677734375 10.5807291666665  C 12.3017578125 10.4921875  12.1966145833333 10.4368489583335  12.15234375 10.4147135416665  C 12.1154513888889 10.392578125  12.0453559027778 10.3446180555557  11.9420572916667 10.2708333333335  C 11.8387586805555 10.1970486111113  11.7465277777778 10.1417100694443  11.6653645833333 10.1048177083335  C 11.5842013888889 10.0679253472222  11.5067274305555 10.0494791666665  11.4329427083333 10.0494791666665  C 11.322265625 10.0494791666665  11.1876085069445 10.1251085069443  11.0289713541667 10.2763671875  C 10.8703342013889 10.4276258680557  10.724609375 10.5936414930557  10.591796875 10.7744140625  C 10.458984375 10.9551866319443  10.3169487847222 11.1212022569443  10.1656901041667 11.2724609375  C 10.0144314236111 11.4237196180557  9.89084201388891 11.4993489583335  9.794921875 11.4993489583335  C 9.74327256944446 11.4993489583335  9.68240017361109 11.4864366319443  9.6123046875 11.4606119791665  C 9.54220920138891 11.4347873263887  9.48502604166669 11.4108072916665  9.44075520833331 11.388671875  C 9.396484375 11.3665364583335  9.33376736111109 11.3314887152778  9.25260416666669 11.2835286458335  C 9.17144097222223 11.2355685763887  9.11979166666669 11.2042100694443  9.09765625 11.189453125  C 8.3671875 10.7836371527778  7.74001736111109 10.3169487847222  7.21614583333331 9.78938802083348  C 6.69227430555554 9.26182725694434  6.22374131944446 8.6328125  5.810546875 7.90234375  C 5.79578993055554 7.88020833333348  5.76443142361109 7.82855902777783  5.71647135416669 7.74739583333348  C 5.66851128472223 7.66623263888869  5.63346354166669 7.603515625  5.611328125 7.55924479166652  C 5.58919270833331 7.51497395833348  5.56521267361109 7.45779079861131  5.53938802083331 7.3876953125  C 5.51356336805554 7.31759982638869  5.50065104166669 7.25672743055566  5.50065104166669 7.205078125  C 5.50065104166669 7.10915798611131  5.57628038194446 6.98556857638869  5.7275390625 6.83430989583348  C 5.87879774305554 6.68305121527783  6.04481336805554 6.541015625  6.2255859375 6.408203125  C 6.40635850694446 6.275390625  6.57237413194446 6.12966579861131  6.7236328125 5.97102864583348  C 6.87489149305554 5.81239149305566  6.95052083333331 5.677734375  6.95052083333331 5.56705729166652  C 6.95052083333331 5.49327256944434  6.93207465277777 5.41579861111131  6.89518229166669 5.33463541666652  C 6.85828993055554 5.25347222222217  6.80295138888891 5.16124131944434  6.72916666666669 5.05794270833348  C 6.65538194444446 4.95464409722217  6.607421875 4.88454861111131  6.58528645833331 4.84765625  C 6.56315104166669 4.80338541666652  6.5078125 4.6982421875  6.41927083333331 4.5322265625  C 6.33072916666669 4.3662109375  6.23849826388891 4.19835069444434  6.142578125 4.02864583333348  C 6.04665798611109 3.85894097222217  5.94889322916669 3.68370225694434  5.84928385416669 3.5029296875  C 5.74967447916669 3.32215711805566  5.65744357638891 3.17274305555566  5.57259114583331 3.0546875  C 5.48773871527777 2.93663194444434  5.42686631944446 2.87022569444434  5.38997395833331 2.85546875  C 5.35308159722223 2.84071180555566  5.29405381944446 2.83333333333348  5.212890625 2.83333333333348  C 4.85872395833331 2.83333333333348  4.48611111111109 2.91449652777783  4.09505208333331 3.07682291666652  C 3.75564236111109 3.23177083333348  3.46050347222223 3.58040364583348  3.20963541666669 4.12272135416652  C 2.95876736111109 4.6650390625  2.83333333333331 5.146484375  2.83333333333331 5.56705729166652  C 2.83333333333331 5.68511284722217  2.84255642361109 5.810546875  2.86100260416669 5.943359375  C 2.87944878472223 6.076171875  2.89789496527777 6.18869357638869  2.91634114583331 6.28092447916652  C 2.93478732638891 6.37315538194434  2.96799045138891 6.49490017361131  3.01595052083331 6.64615885416652  C 3.06391059027777 6.79741753472217  3.10080295138891 6.90625  3.12662760416669 6.97265625  C 3.15245225694446 7.0390625  3.19856770833331 7.16080729166652  3.26497395833331 7.337890625  C 3.33138020833331 7.51497395833348  3.37196180555554 7.62565104166652  3.38671875 7.669921875  C 3.82942708333331 8.87999131944434  4.62814670138891 10.0623914930557  5.78287760416669 11.2171223958335  C 6.93760850694446 12.3718532986113  8.12000868055554 13.1705729166665  9.330078125 13.61328125  C 9.37434895833331 13.6280381944443  9.48502604166669 13.6686197916665  9.662109375 13.7350260416665  C 9.83919270833331 13.8014322916665  9.9609375 13.8475477430557  10.02734375 13.8733723958335  C 10.09375 13.8991970486113  10.2025824652778 13.9360894097222  10.3538411458333 13.9840494791665  C 10.5050998263889 14.0320095486113  10.6268446180555 14.0652126736113  10.7190755208333 14.0836588541665  C 10.8113064236111 14.1021050347222  10.923828125 14.1205512152778  11.056640625 14.1389973958335  C 11.189453125 14.1574435763887  11.3148871527778 14.1666666666665  11.4329427083333 14.1666666666665  C 11.853515625 14.1666666666665  12.3349609375 14.0412326388887  12.8772786458333 13.7903645833335  C 13.4195963541667 13.5394965277778  13.7682291666667 13.2443576388887  13.9231770833333 12.9049479166665  Z M 16.0647786458333 0.935221354166515  C 16.6882595486111 1.55870225694434  17 2.30946180555566  17 3.1875  L 17 13.8125  C 17 14.6905381944443  16.6882595486111 15.4412977430557  16.0647786458333 16.0647786458335  C 15.4412977430555 16.6882595486113  14.6905381944445 17  13.8125 17  L 3.1875 17  C 2.30946180555554 17  1.55870225694446 16.6882595486113  0.935221354166686 16.0647786458335  C 0.311740451388914 15.4412977430557  0 14.6905381944443  0 13.8125  L 0 3.1875  C 0 2.30946180555566  0.311740451388914 1.55870225694434  0.935221354166686 0.935221354166515  C 1.55870225694446 0.311740451388687  2.30946180555554 0  3.1875 0  L 13.8125 0  C 14.6905381944445 0  15.4412977430555 0.311740451388687  16.0647786458333 0.935221354166515  Z " fill-rule="nonzero" fill="#70b603" stroke="none" transform="matrix(1 0 0 1 153 4872 )" />
  </g>
</svg>